<svg width="500" height="500" viewBox="0 0 500 500" fill="none" xmlns="http://www.w3.org/2000/svg">
<circle cx="250" cy="250" r="207" fill="#E4E4E4"/>
<path d="M434.414 192.649C434.349 191.706 435.508 191.208 436.148 191.904L452.293 209.499C452.528 209.756 452.824 209.94 453.146 210.045C455.674 222.973 457.001 236.332 457.001 250C457.001 250.29 456.999 250.581 456.998 250.871L446.141 270.64C445.686 271.47 444.439 271.261 444.279 270.329L438.062 234.134C437.951 233.489 437.531 232.939 436.939 232.661L411.365 220.675C410.446 220.243 410.68 218.875 411.69 218.774L434.121 216.534C435.196 216.427 435.991 215.484 435.917 214.406L434.414 192.649ZM332.603 150.932C332.491 150.023 333.56 149.455 334.251 150.056L356.639 169.483C357.175 169.949 357.919 170.095 358.591 169.867L381.337 162.168C382.184 161.882 382.952 162.765 382.551 163.563L371.467 185.673C371.073 186.459 371.239 187.412 371.876 188.018L396.611 211.541C397.376 212.269 396.638 213.532 395.628 213.222L366.339 204.221C365.46 203.95 364.51 204.315 364.037 205.104L347.092 233.372C346.602 234.19 345.353 233.922 345.242 232.974L341.155 198.116C341.06 197.306 340.483 196.635 339.696 196.42L308.668 187.937C307.694 187.671 307.684 186.292 308.655 186.012L334.314 178.623C335.259 178.351 335.866 177.432 335.746 176.456L332.603 150.932ZM208.332 124.766C208.248 123.898 209.239 123.346 209.933 123.875L238.405 145.559C238.957 145.98 239.688 146.084 240.335 145.835L276.62 131.859C277.491 131.524 278.307 132.46 277.854 133.277L263.493 159.203C263.022 160.052 263.23 161.116 263.984 161.726L289.566 182.428C290.325 183.042 289.843 184.269 288.869 184.203L245.662 181.25C244.859 181.195 244.102 181.626 243.74 182.344L227.225 215.045C226.805 215.876 225.577 215.733 225.36 214.828L217.652 182.692C217.436 181.793 216.631 181.159 215.707 181.159H174.775C173.719 181.159 173.384 179.733 174.331 179.264L210.548 161.283C211.291 160.914 211.729 160.126 211.65 159.301L208.332 124.766Z" fill="black"/>
</svg>
