<svg width="500" height="500" viewBox="0 0 500 500" fill="none" xmlns="http://www.w3.org/2000/svg">
<path d="M418.419 319.654C430.41 319.704 435.084 323.406 437.002 328.262C438.87 332.992 437.357 338.265 435.074 342.809C401.048 410.529 330.953 457 250 457C206.022 457 165.248 443.283 131.72 419.897C128.781 417.847 130.965 413.33 134.482 414.023C139.365 414.984 144.38 415.797 149.527 416.454C227.885 426.457 273.997 387.387 322.958 356.112C338.01 346.497 355.667 337.246 372.892 330.452C390.335 323.571 406.351 319.604 418.419 319.654Z" fill="#DFF226"/>
<path d="M379.431 95.9809C379.731 93.1359 383.135 91.4577 385.302 93.3263C429.293 131.276 457 187.326 457 250C457 266.401 455.088 282.355 451.482 297.655C450.65 301.184 446.333 302.549 443.129 300.854C435.726 296.94 427.046 295.42 418.519 295.385C401.946 295.316 382.583 300.54 363.987 307.876C345.174 315.297 326.13 325.288 309.894 335.659C258.107 368.74 220.332 401.027 152.6 392.38C137.793 390.49 124.41 387.196 112.387 382.749C87.4923 373.54 68.4649 353.037 58.3949 328.477C48.4714 304.275 43 277.777 43 250C43 241.792 43.7045 231.901 44.8422 222.453C47.4083 201.142 57.6691 181.353 75.3636 169.202C93.135 156.999 114.549 149.594 137.74 149.594C155.175 149.594 171.894 150.777 188.382 152.196C204.711 153.601 221.149 155.272 237.21 156.119C269.618 157.828 302.209 156.316 336.427 142.527C353.827 135.515 366.705 125.923 373.778 113.474C376.988 107.824 378.803 101.939 379.431 95.9809Z" fill="#DFF226"/>
<path d="M250 43C278.301 43 305.274 48.6816 329.844 58.9637C340.261 63.3229 349.878 70.5935 353.595 81.2562C356.405 89.3171 355.869 95.8669 352.677 101.486C349.274 107.475 341.838 114.181 327.357 120.017C297.81 131.924 269.25 133.506 238.489 131.884C222.964 131.065 207.31 129.465 190.463 128.016C173.775 126.579 156.232 125.325 137.74 125.325C118.833 125.325 100.905 129.326 84.6341 136.41C81.519 137.766 78.3276 134.254 80.2754 131.47C117.7 77.9809 179.764 43 250 43Z" fill="#DFF226"/>
</svg>
