<svg width="500" height="500" viewBox="0 0 500 500" fill="none" xmlns="http://www.w3.org/2000/svg">
<path fill-rule="evenodd" clip-rule="evenodd" d="M422.489 171.488C422.714 176.532 425.637 181.066 430.139 183.354L487.868 212.686C491.14 214.348 492.168 218.532 490.038 221.519L441.611 289.454C439.501 292.414 440.009 296.497 442.78 298.852L476.93 327.876C479.979 330.466 478.904 335.408 475.057 336.496L173.035 421.925L173.031 406.524C173.031 404.733 174.222 403.16 175.946 402.675L217.686 390.935C218.912 390.59 219.791 389.508 219.843 388.235C220.111 381.59 219.68 374.858 218.551 368.16C218.115 365.574 215.276 364.243 212.945 365.443L170.19 387.455C168.226 388.466 165.814 387.693 164.802 385.729L160.553 377.483C159.541 375.519 160.313 373.107 162.277 372.096L209.028 348.027C210.874 347.077 211.692 344.868 210.835 342.976C207.413 335.429 203.027 328.143 197.675 321.316C196.234 319.477 193.517 319.37 191.866 321.022L154.037 358.851C153.889 358.999 153.648 358.999 153.5 358.851L153.322 358.673C153.273 358.623 153.193 358.623 153.143 358.672V358.672C153.094 358.722 153.014 358.721 152.965 358.672L143.666 349.373C142.103 347.811 142.103 345.278 143.664 343.717L179.113 308.268C180.764 306.616 180.658 303.9 178.819 302.458C171.991 297.107 164.705 292.72 157.158 289.299C155.266 288.441 153.057 289.26 152.107 291.106L128.038 337.857C127.027 339.821 124.615 340.593 122.651 339.581L114.405 335.332C112.441 334.32 111.668 331.908 112.679 329.944L135.284 286.036C136.184 284.288 135.186 282.159 133.251 281.807C126.37 280.555 119.445 280.041 112.607 280.265C110.909 280.321 109.467 281.495 109.007 283.13L97.5444 323.885C97.0204 325.748 95.2374 326.968 93.3106 326.782L78.66 325.365L163.638 25.0765C164.726 21.2291 169.668 20.1553 172.258 23.2033L201.282 57.3549C203.637 60.1259 207.721 60.6338 210.68 58.524L278.616 10.0963C281.603 7.96674 285.786 8.99469 287.449 12.2668L316.788 70.0105C319.072 74.5048 323.594 77.426 328.629 77.6588L413.026 81.5613C416.127 81.7047 418.608 84.1899 418.746 87.2913L422.489 171.488ZM160.139 237.759C161.048 235.994 160.021 233.847 158.064 233.507C147.319 231.64 136.499 231.2 125.918 232.192C124.305 232.343 122.969 233.49 122.531 235.05L115.407 260.377C115.046 261.66 116.018 262.932 117.351 262.951C125.607 263.069 133.904 264.092 142.084 266.006C143.91 266.434 145.808 265.594 146.666 263.928L160.139 237.759ZM236.205 353.468C234.539 354.326 233.7 356.224 234.127 358.05C236.042 366.23 237.064 374.527 237.182 382.782C237.202 384.115 238.473 385.088 239.756 384.727L265.729 377.422C266.899 377.093 267.758 376.091 267.878 374.882C268.909 364.515 268.564 353.912 266.845 343.369C266.419 340.756 263.557 339.386 261.203 340.598L236.205 353.468ZM220.347 267.034C221.571 265.809 221.509 263.802 220.182 262.688C208.48 252.861 195.604 245.364 182.214 240.205C180.346 239.485 178.254 240.319 177.338 242.098L163.194 269.57C162.396 271.119 163.085 273.018 164.67 273.743C174.116 278.066 183.177 283.675 191.572 290.55C193.198 291.882 195.576 291.805 197.061 290.319L220.347 267.034ZM209.155 303.733C208.041 304.847 207.983 306.631 208.99 307.843C215.897 316.151 221.552 325.123 225.938 334.487C226.924 336.592 229.454 337.511 231.52 336.447L258.036 322.796C259.815 321.88 260.649 319.787 259.93 317.92C254.89 304.841 247.621 292.253 238.129 280.772C236.657 278.991 233.979 278.908 232.347 280.541L209.155 303.733ZM189.32 181.078C190.263 179.247 189.122 177.033 187.077 176.794C171.35 174.956 155.566 175.7 140.418 179.054C139.004 179.367 137.889 180.444 137.497 181.839L129.024 211.962C128.651 213.29 129.702 214.589 131.08 214.53C143.028 214.013 155.129 215.067 167.056 217.671C168.858 218.064 170.713 217.221 171.557 215.582L189.32 181.078ZM284.552 328.577C282.913 329.421 282.069 331.276 282.463 333.078C285.067 345.004 286.121 357.105 285.604 369.053C285.545 370.432 286.844 371.483 288.172 371.109L318.861 362.478C319.906 362.183 320.714 361.347 320.953 360.288C324.314 345.411 325.153 329.912 323.496 314.448C323.203 311.718 320.252 310.197 317.812 311.454L284.552 328.577ZM269.609 217.771C270.827 216.553 270.772 214.559 269.465 213.436C268.09 212.256 266.701 211.103 265.298 209.979C265.292 209.974 265.29 209.965 265.295 209.958V209.958C265.299 209.951 265.298 209.942 265.291 209.937C248.965 196.809 230.752 187.441 211.907 181.881C210.097 181.347 208.176 182.198 207.312 183.875L188.968 219.508C187.871 221.639 188.884 224.247 191.104 225.152C205.573 231.055 219.418 239.372 231.99 250.057C233.606 251.431 236.013 251.368 237.512 249.868L269.609 217.771ZM250.266 262.622C248.766 264.121 248.703 266.528 250.077 268.144C260.762 280.716 269.078 294.56 274.981 309.03C275.887 311.25 278.495 312.263 280.626 311.166L316.978 292.45C318.236 291.803 318.873 290.362 318.479 289.003C312.569 268.567 302.186 248.853 287.395 231.456C285.908 229.707 283.251 229.636 281.629 231.259L250.266 262.622Z" fill="#4684E9"/>
<path d="M138.191 361.764C166.72 390.294 168.491 434.778 142.147 461.122C142.087 461.182 142.027 461.24 141.967 461.299L141.968 461.301L130.713 472.556C102.198 501.071 55.9539 501.06 27.4246 472.531C-1.10463 444.001 -1.11606 397.757 27.3991 369.242L38.6545 357.987L38.6555 357.988C38.7147 357.928 38.7735 357.868 38.833 357.808C65.1775 331.464 109.661 333.235 138.191 361.764Z" fill="#E4E4E4"/>
<path d="M159.094 340.862C187.623 369.391 189.394 413.875 163.05 440.22L141.968 461.301C142.028 461.242 142.087 461.182 142.147 461.122C168.492 434.778 166.72 390.294 138.191 361.764C109.662 333.235 65.1781 331.464 38.8337 357.809C38.774 357.868 38.7152 357.929 38.6558 357.988L59.7362 336.906C86.0806 310.562 130.565 312.333 159.094 340.862Z" fill="black"/>
</svg>
